HIERARCHY
ROOT hip
{
	OFFSET 0.000000 0.000000 0.000000 
	CHANNELS 6 Xposition Yposition Zposition Xrotation Zrotation Yrotation
	JOINT abdomen
	{
		OFFSET 0.000000 3.402643 0.000000 
		CHANNELS 3 Xrotation Zrotation Yrotation
		JOINT chest
		{
			OFFSET 0.000000 8.438565 -0.680529 
			CHANNELS 3 Xrotation Zrotation Yrotation
			JOINT neck
			{
				OFFSET 0.000000 10.207942 -0.272212 
				CHANNELS 3 Xrotation Zrotation Yrotation
				JOINT head
				{
					OFFSET 0.000000 3.130431 0.000000 
					CHANNELS 3 Xrotation Zrotation Yrotation
					End Site
					{
						OFFSET 0.000000 3.130435 0.000000 
					}
				}
			}
			JOINT lCollar
			{
				OFFSET 3.470700 6.669187 -0.816635 
				CHANNELS 3 Yrotation Zrotation Xrotation
				JOINT lShldr
				{
					OFFSET 3.198488 0.000000 0.000000 
					CHANNELS 3 Zrotation Yrotation Xrotation
					JOINT lForeArm
					{
						OFFSET 10.139888 0.000000 0.000000 
						CHANNELS 3 Yrotation Zrotation Xrotation
						JOINT lHand
						{
							OFFSET 8.370511 0.000000 0.000000 
							CHANNELS 3 Zrotation Yrotation Xrotation
							End Site
							{
								OFFSET 4.083176 0.000000 0.000000 
							}
						}
					}
				}
			}
			JOINT rCollar
			{
				OFFSET -3.470700 6.669187 -0.816635 
				CHANNELS 3 Yrotation Zrotation Xrotation
				JOINT rShldr
				{
					OFFSET -3.198488 0.000000 0.000000 
					CHANNELS 3 Zrotation Yrotation Xrotation
					JOINT rForeArm
					{
						OFFSET -10.139888 0.000000 0.000000 
						CHANNELS 3 Yrotation Zrotation Xrotation
						JOINT rHand
						{
							OFFSET -8.370511 0.000000 0.000000 
							CHANNELS 3 Zrotation Yrotation Xrotation
							End Site
							{
								OFFSET -4.083176 0.000000 0.000000 
							}
						}
					}
				}
			}
		}
	}
	JOINT lThigh
	{
		OFFSET 5.308129 -1.633274 1.361059 
		CHANNELS 3 Xrotation Zrotation Yrotation
		JOINT lShin
		{
			OFFSET -2.041588 -20.007561 0.000000 
			CHANNELS 3 Xrotation Zrotation Yrotation
			JOINT lFoot
			{
				OFFSET 0.000000 -19.190928 -1.224953 
				CHANNELS 3 Xrotation Yrotation Zrotation
				End Site
				{
					OFFSET 0.000000 -2.449906 4.627600 
				}
			}
		}
	}
	JOINT rThigh
	{
		OFFSET -5.308129 -1.633274 1.361059 
		CHANNELS 3 Xrotation Zrotation Yrotation
		JOINT rShin
		{
			OFFSET 2.041588 -20.007561 0.000000 
			CHANNELS 3 Xrotation Zrotation Yrotation
			JOINT rFoot
			{
				OFFSET 0.000000 -19.190928 -1.224953 
				CHANNELS 3 Xrotation Yrotation Zrotation
				End Site
				{
					OFFSET 0.000000 -2.449906 4.627600 
				}
			}
		}
	}
}
MOTION
Frames: 11
Frame Time: 0.016667
-0.187750 46.343441 -0.792988 -11.400942 8.126487 34.704765 38.884777 -0.571113 -7.598055 -13.319734 11.916200 -7.334779 11.945181 -2.086283 -12.713935 0.306822 12.799043 -15.440447 -12.560378 -10.603345 -0.009369 -66.721024 -22.658760 22.851648 -125.751541 0.544073 7.268494 24.114967 20.274971 8.809611 21.446152 5.269866 -0.009948 57.286621 -14.200649 -20.889925 116.829758 -0.110042 1.995144 -24.387367 -1.791899 0.801382 2.555382 23.187969 26.395159 57.103870 0.294432 -3.745625 -11.322631 4.609151 -11.152746 -17.348940 -23.588457 2.711203 28.952944 1.147505 2.454953 18.287014 8.778886 9.528024 
0.068437 47.159645 -1.651813 -9.995351 8.200853 35.019623 38.912857 -0.724963 -8.184293 -14.279515 11.987891 -7.907450 11.829410 -2.423092 -12.355247 0.589993 12.905720 -15.075778 -12.482241 -10.525233 -0.009374 -67.013184 -19.498474 24.396492 -124.923302 0.564449 7.387533 24.218590 19.199421 8.414371 21.485199 5.181971 -0.009932 60.021400 -15.080267 -19.853672 116.479408 -0.177127 2.733300 -26.532352 -2.092762 1.033311 2.125999 21.265764 26.367332 54.511620 0.129189 -3.644401 -9.166277 1.317117 -11.976174 -17.133890 -24.740347 2.375331 24.562841 1.313988 2.180156 24.189987 7.823077 8.945554 
0.300181 47.813938 -2.472176 -8.844002 8.311007 35.209541 39.102859 -0.917412 -8.555928 -15.055139 12.152670 -8.231275 10.829112 -3.081766 -12.322840 1.099132 12.721735 -14.984583 -12.325877 -9.851432 -0.009400 -66.948227 -16.824493 24.899357 -124.502151 0.636118 8.287519 21.135294 19.504431 7.347222 21.533947 4.683916 -0.009851 61.525314 -16.577726 -19.177277 116.174309 -0.157890 2.513106 -24.408182 -1.880554 0.842322 1.717882 19.579849 24.561289 52.035381 -0.016692 -3.552143 -7.512135 -3.141464 -12.586314 -17.214149 -25.787165 0.391545 21.979013 1.415806 1.997760 27.630533 9.756180 7.427773 
0.531913 48.468189 -3.292489 -7.694471 8.427457 35.410637 39.295361 -1.109445 -8.927498 -15.833365 12.306829 -8.566748 9.817687 -3.740754 -12.282862 1.607662 12.537575 -14.893547 -12.169512 -9.177629 -0.009424 -66.864822 -14.150482 25.403496 -124.079048 0.723518 9.191290 18.054565 19.748375 6.276543 21.582697 4.195627 -0.009771 63.029396 -18.093775 -18.528788 115.868080 -0.137458 2.292762 -22.284752 -1.670146 0.662960 1.364440 17.866184 22.804567 49.519051 -0.172931 -3.476382 -5.852568 -7.575923 -13.074177 -17.251545 -26.848368 -1.615089 19.392159 1.503633 1.828887 31.145687 11.582683 5.751536 
0.761146 48.897385 -4.058236 -7.011323 8.065540 35.165237 39.285419 -0.946016 -8.702396 -16.567459 12.289697 -8.495831 9.224826 -4.425791 -12.410925 1.760064 12.753685 -15.086129 -12.179114 -8.220596 -0.009448 -66.788223 -11.901510 26.192333 -123.738838 0.873198 10.975924 16.267296 19.716028 5.613441 21.787676 3.580359 -0.009660 63.669788 -20.063709 -17.210884 115.733406 -0.062058 1.481130 -22.345379 0.624842 -0.277935 0.984278 16.772568 20.005074 47.656189 -0.280231 -3.405492 -5.163594 -9.566917 -13.165163 -17.370699 -26.626760 -1.340011 17.881985 1.542188 1.736204 34.295498 14.674167 2.876734 
0.990370 49.326546 -4.823944 -6.329100 7.709405 34.921463 39.287830 -0.792053 -8.467737 -17.300133 12.262880 -8.424918 8.626554 -5.119885 -12.531834 1.922948 12.969874 -15.271583 -12.188714 -7.253798 -0.009469 -66.689224 -9.632002 26.974661 -123.411407 1.031399 12.761775 14.479987 19.653219 4.955337 21.992657 2.974859 -0.009550 64.276436 -22.043900 -15.903877 115.587440 -0.002979 0.674961 -22.443857 2.917394 -1.225348 0.642798 15.660354 17.217402 45.803947 -0.377485 -3.299151 -4.505630 -11.582001 -13.250381 -17.489296 -26.414442 -1.074297 16.389334 1.578594 1.662716 37.675072 17.560888 -0.197683 
1.232590 49.443501 -5.535165 -6.107681 7.136306 34.059799 39.125477 -0.599821 -7.832520 -17.535324 12.160854 -7.951750 8.068143 -5.708093 -12.672088 2.083481 13.334300 -15.494708 -12.462973 -6.089535 -0.018964 -66.736252 -7.803347 26.622408 -123.335304 1.021266 12.761147 15.557605 20.186138 5.490626 22.197659 2.486545 -0.009457 63.464184 -23.528627 -14.052543 115.972351 0.021598 0.474764 -22.948416 2.226599 -0.952692 0.838188 15.035663 16.025618 45.062115 -0.416506 -3.279144 -4.675090 -5.915948 -12.736310 -18.112663 -25.445574 0.649680 16.694548 1.571687 1.658313 37.422054 16.632782 0.553851 
1.474812 49.560417 -6.246380 -5.867917 6.566187 33.195740 38.967335 -0.406933 -7.187733 -17.762594 12.057770 -7.478589 7.509387 -6.286369 -12.802930 2.248074 13.707192 -15.720692 -12.736014 -4.917569 -0.018981 -66.796967 -5.976581 26.275404 -123.261368 1.020676 12.760424 16.639437 20.700003 6.030804 22.412424 1.998230 -0.009363 62.600105 -24.982817 -12.162641 116.346123 0.035625 0.277380 -23.466505 1.533064 -0.686449 1.054381 14.413079 14.862766 44.310837 -0.455698 -3.248658 -4.884140 -0.237184 -12.217431 -18.677315 -24.467754 2.311477 17.007877 1.559236 1.712080 37.158100 15.669723 1.325950 
1.736872 49.327351 -6.919241 -5.896853 6.020245 32.014618 38.767628 -0.320116 -6.621209 -17.556490 12.332174 -6.996559 6.867132 -7.394654 -12.706079 2.329113 14.165073 -15.793749 -12.627606 -3.913881 -0.009507 -67.064903 -4.622734 25.118193 -123.656273 0.953543 11.894687 15.315277 20.578497 5.500671 22.949345 0.796973 -0.009128 61.609241 -25.915348 -10.568083 116.725296 -0.016941 0.874215 -22.269077 0.932489 -0.402876 1.578923 14.484711 15.723716 44.350590 -0.455455 -3.231083 -5.853122 4.280173 -11.625555 -19.763556 -23.572279 3.164108 18.244343 1.529392 1.782563 34.755928 13.122552 3.772263 
1.998931 49.094261 -7.592099 -5.911779 5.473381 30.829950 38.569603 -0.233072 -6.044991 -17.346807 12.596303 -6.524228 6.216081 -8.494989 -12.592228 2.415951 14.632086 -15.867871 -12.520018 -2.917805 -0.009521 -67.363403 -3.271744 23.973751 -124.047707 0.883807 11.026697 13.988935 20.437136 4.964023 23.476563 -0.400391 0.000000 60.574974 -26.816160 -8.931519 117.093811 -0.065981 1.468906 -21.084398 0.324513 -0.135581 2.117767 14.558044 16.606100 44.379501 -0.455414 -3.242154 -6.866276 8.807076 -10.940768 -20.804911 -22.651194 3.990561 19.508785 1.490669 1.881698 32.480076 10.454618 6.116861 
2.266023 48.629524 -8.244634 -5.845147 4.977938 29.811707 38.183338 -0.194359 -5.664097 -17.083710 12.749998 -6.187518 6.047770 -9.112131 -12.406181 1.930651 14.840152 -15.863922 -12.187838 -2.029188 -0.009540 -67.430412 -2.324995 22.740446 -124.513664 0.853968 10.808680 13.378462 20.629223 4.780696 23.720482 -1.419944 -0.008938 59.334316 -26.885365 -7.475674 117.464844 -0.067280 1.482944 -19.794916 -0.024992 -0.011766 2.409530 14.857555 17.702625 44.574677 -0.455341 -3.251513 -9.142169 7.334406 -10.901634 -21.838249 -22.083906 5.367571 19.705219 1.480910 1.890400 30.418114 8.053654 7.855399 
